<mxfile host="app.diagrams.net" modified="2024-02-17T04:03:13.758Z" agent="Mozilla/5.0 (Windows NT 10.0; Win64; x64) AppleWebKit/537.36 (KHTML, like Gecko) Chrome/121.0.0.0 Safari/537.36" version="23.1.5" etag="nb4KXsR6OAbxcC_6mqMz" type="github">
  <diagram name="Страница — 1" id="07HIHKT_4UF6WrcTB_KM">
    <mxGraphModel>
      <root>
        <mxCell id="0" />
        <mxCell id="1" parent="0" />
      </root>
    </mxGraphModel>
  </diagram>
</mxfile>
